<svg width="53" height="46" viewBox="0 0 53 46" fill="none" xmlns="http://www.w3.org/2000/svg">
<path d="M0.914551 3.81116L11.5067 6.18273L20.7302 24.6213L16.2657 33.6734L0.914551 3.81116Z" fill="#00ADEF"/>
<path d="M16.9466 3.97783L25.44 5.63707L44.2499 32.2213L42.1882 41.1994L16.9466 3.97783Z" fill="#00ADEF"/>
<path d="M49.5357 12.0247L46.4909 5.33922L37.1654 19.8003L40.8833 25.4166L49.5357 12.0247Z" fill="#00ADEF"/>
<path d="M33.9146 32L30.1349 26.3539L26.3793 31.5043C28.0496 34.5932 31.1713 34.4556 32.9146 34L33.9146 32Z" fill="#00ADEF"/>
<path d="M17.657 35.6793L21.4534 26.6024C26.8644 36.014 25.9651 35.26 35.3408 35.8329L28.0001 42.5388C24.0348 45.2158 23.0017 44.6612 17.657 35.6793Z" fill="#00ADEF"/>
</svg>
